<svg width="333" height="60" viewBox="0 0 333 60" fill="none" xmlns="http://www.w3.org/2000/svg">
<g filter="url(#filter0_d_1_26)">
<path d="M8 18C8 12.4772 12.4772 8 18 8H311C316.523 8 321 12.4772 321 18V38C321 43.5228 316.523 48 311 48H18C12.4771 48 8 43.5228 8 38V18Z" fill="#FC004E" shape-rendering="crispEdges"/>
<path d="M99.02 35.24C97.5933 35.24 96.3267 34.9333 95.22 34.32C94.1267 33.6933 93.2667 32.84 92.64 31.76C92.0133 30.6667 91.7 29.4133 91.7 28C91.7 26.5867 92.0133 25.34 92.64 24.26C93.2667 23.1667 94.1267 22.3133 95.22 21.7C96.3267 21.0733 97.5933 20.76 99.02 20.76C99.8733 20.76 100.66 20.8867 101.38 21.14C102.1 21.3933 102.733 21.7467 103.28 22.2C103.84 22.64 104.307 23.1467 104.68 23.72L102.44 25.12C102.213 24.76 101.913 24.44 101.54 24.16C101.18 23.88 100.78 23.66 100.34 23.5C99.9 23.34 99.46 23.26 99.02 23.26C98.14 23.26 97.36 23.4667 96.68 23.88C96 24.28 95.4667 24.8333 95.08 25.54C94.6933 26.2467 94.5 27.0667 94.5 28C94.5 28.92 94.6867 29.74 95.06 30.46C95.4467 31.18 95.9867 31.7467 96.68 32.16C97.3733 32.56 98.1733 32.76 99.08 32.76C99.7867 32.76 100.413 32.62 100.96 32.34C101.52 32.06 101.96 31.6667 102.28 31.16C102.6 30.6533 102.76 30.0667 102.76 29.4L105.36 29C105.36 30.32 105.087 31.4467 104.54 32.38C104.007 33.3133 103.26 34.0267 102.3 34.52C101.353 35 100.26 35.24 99.02 35.24ZM99.48 29.64V27.5H105.36V29.2L103.88 29.64H99.48ZM107.383 35V21H110.123V35H107.383ZM109.463 35V32.5H116.323V35H109.463ZM109.463 29.12V26.68H115.403V29.12H109.463ZM109.463 23.5V21H116.243V23.5H109.463ZM122.121 35V22.16H124.861V35H122.121ZM117.921 23.5V21H129.041V23.5H117.921ZM140.306 35.24C139.599 35.24 138.939 35.1533 138.326 34.98C137.713 34.8067 137.166 34.5667 136.686 34.26C136.206 33.94 135.806 33.5867 135.486 33.2C135.179 32.8133 134.979 32.4067 134.886 31.98L137.566 31.18C137.739 31.6333 138.046 32.0267 138.486 32.36C138.926 32.68 139.479 32.8467 140.146 32.86C140.853 32.8733 141.426 32.72 141.866 32.4C142.319 32.08 142.546 31.6667 142.546 31.16C142.546 30.72 142.366 30.3533 142.006 30.06C141.659 29.7533 141.179 29.52 140.566 29.36L138.746 28.88C138.066 28.7067 137.466 28.4467 136.946 28.1C136.426 27.74 136.019 27.3 135.726 26.78C135.433 26.26 135.286 25.6533 135.286 24.96C135.286 23.64 135.719 22.6133 136.586 21.88C137.466 21.1333 138.706 20.76 140.306 20.76C141.199 20.76 141.979 20.8933 142.646 21.16C143.326 21.4133 143.893 21.78 144.346 22.26C144.799 22.74 145.146 23.3067 145.386 23.96L142.726 24.78C142.566 24.3267 142.273 23.94 141.846 23.62C141.419 23.3 140.879 23.14 140.226 23.14C139.559 23.14 139.033 23.2933 138.646 23.6C138.273 23.9067 138.086 24.34 138.086 24.9C138.086 25.34 138.233 25.6867 138.526 25.94C138.833 26.1933 139.246 26.3867 139.766 26.52L141.606 26.98C142.806 27.2733 143.739 27.8 144.406 28.56C145.073 29.32 145.406 30.1667 145.406 31.1C145.406 31.9267 145.206 32.6533 144.806 33.28C144.406 33.8933 143.826 34.3733 143.066 34.72C142.306 35.0667 141.386 35.24 140.306 35.24ZM150.714 35V22.16H153.454V35H150.714ZM146.514 23.5V21H157.634V23.5H146.514ZM167.845 35L162.485 21H165.225L170.745 35H167.845ZM156.785 35L162.305 21H165.045L159.685 35H156.785ZM159.385 31.92V29.5H168.165V31.92H159.385ZM174.842 30.04V27.54H177.642C178.056 27.54 178.422 27.4533 178.742 27.28C179.076 27.1067 179.336 26.8667 179.522 26.56C179.722 26.2533 179.822 25.9067 179.822 25.52C179.822 24.92 179.602 24.4333 179.162 24.06C178.736 23.6867 178.182 23.5 177.502 23.5H174.842V21L177.622 20.98C178.609 20.9667 179.482 21.16 180.242 21.56C181.002 21.9467 181.596 22.48 182.022 23.16C182.449 23.84 182.662 24.6267 182.662 25.52C182.662 26.4 182.436 27.1867 181.982 27.88C181.542 28.56 180.936 29.0933 180.162 29.48C179.389 29.8533 178.509 30.04 177.522 30.04H174.842ZM172.422 35V21H175.162V35H172.422ZM180.122 35L176.882 29.38L178.982 27.88L183.222 35H180.122ZM188.039 35V22.16H190.779V35H188.039ZM183.839 23.5V21H194.959V23.5H183.839ZM196.758 35V21H199.498V35H196.758ZM198.838 35V32.5H205.698V35H198.838ZM198.838 29.12V26.68H204.778V29.12H198.838ZM198.838 23.5V21H205.618V23.5H198.838ZM213.016 35V32.44C213.656 32.44 214.249 32.3267 214.796 32.1C215.342 31.8733 215.816 31.56 216.216 31.16C216.629 30.76 216.949 30.2933 217.176 29.76C217.402 29.2133 217.516 28.6267 217.516 28C217.516 27.3733 217.402 26.7933 217.176 26.26C216.949 25.7133 216.629 25.24 216.216 24.84C215.816 24.44 215.342 24.1267 214.796 23.9C214.249 23.6733 213.656 23.56 213.016 23.56V21C214.442 21 215.702 21.3 216.796 21.9C217.902 22.5 218.762 23.3267 219.376 24.38C220.002 25.42 220.316 26.6267 220.316 28C220.316 29.36 220.002 30.5667 219.376 31.62C218.749 32.6733 217.889 33.5 216.796 34.1C215.702 34.7 214.442 35 213.016 35ZM210.116 35V32.44H213.016V35H210.116ZM208.536 35V21H211.276V35H208.536ZM210.116 23.56V21H213.016V23.56H210.116Z" fill="white"/>
<path d="M238.192 27.2646C238.603 27.6792 238.602 28.3329 238.191 28.7471L233.291 33.6875C232.878 34.1039 232.222 34.104 231.809 33.6875C231.607 33.4847 231.5 33.2157 231.5 32.9512L231.5 32.7451L231.538 32.707C231.551 32.6485 231.568 32.5907 231.592 32.5352C231.645 32.4108 231.722 32.2983 231.819 32.2041L235.979 28L231.818 23.7959L231.819 23.7949C231.409 23.3804 231.408 22.7268 231.819 22.3125C232.233 21.8958 232.889 21.8958 233.303 22.3125L233.303 22.3135L238.192 27.2646Z" fill="white" stroke="white"/>
</g>
<defs>
<filter id="filter0_d_1_26" x="0" y="0" width="333" height="60" filterUnits="userSpaceOnUse" color-interpolation-filters="sRGB">
<feFlood flood-opacity="0" result="BackgroundImageFix"/>
<feColorMatrix in="SourceAlpha" type="matrix" values="0 0 0 0 0 0 0 0 0 0 0 0 0 0 0 0 0 0 127 0" result="hardAlpha"/>
<feOffset dx="2" dy="2"/>
<feGaussianBlur stdDeviation="5"/>
<feComposite in2="hardAlpha" operator="out"/>
<feColorMatrix type="matrix" values="0 0 0 0 0 0 0 0 0 0.905882 0 0 0 0 0.976471 0 0 0 1 0"/>
<feBlend mode="normal" in2="BackgroundImageFix" result="effect1_dropShadow_1_26"/>
<feBlend mode="normal" in="SourceGraphic" in2="effect1_dropShadow_1_26" result="shape"/>
</filter>
</defs>
</svg>
